<svg width="15" height="14" viewBox="0 0 15 14" fill="none" xmlns="http://www.w3.org/2000/svg">
<path d="M7.98337 8.7738e-05C8.13581 -0.00015831 8.28743 0.0224724 8.43317 0.0672226L12.5754 1.30921C13.0075 1.45504 13.3848 1.72916 13.6571 2.09501C13.9294 2.46085 14.0837 2.90102 14.0993 3.3568L14.0993 10.0702C14.077 10.5202 13.9197 10.953 13.6479 11.3122C13.376 11.6715 13.0023 11.9405 12.5754 12.0843L8.43317 13.3598C8.23228 13.4283 8.01803 13.4482 7.80797 13.4178C7.59791 13.3875 7.39804 13.3078 7.22475 13.1853C7.05924 13.0547 6.9268 12.887 6.83816 12.6957C6.74952 12.5044 6.70717 12.295 6.71453 12.0843L6.71453 9.3989C6.71453 9.30987 6.74989 9.22449 6.81284 9.16154C6.87579 9.09859 6.96117 9.06322 7.0502 9.06322C7.13922 9.06322 7.2246 9.09859 7.28755 9.16154C7.35051 9.22449 7.38587 9.30987 7.38587 9.3989L7.38587 12.0843C7.37844 12.1907 7.39649 12.2974 7.43852 12.3955C7.48055 12.4935 7.54535 12.5802 7.62755 12.6482C7.71612 12.7083 7.81778 12.7464 7.92406 12.7592C8.03033 12.7721 8.13813 12.7593 8.23848 12.722L12.3807 11.4801C12.6743 11.3738 12.9302 11.1834 13.1165 10.9327C13.3027 10.682 13.411 10.3821 13.428 10.0702L13.428 3.3568C13.411 3.04496 13.3027 2.745 13.1165 2.49431C12.9302 2.24361 12.6743 2.05326 12.3807 1.94698L8.23848 0.704998C8.13927 0.663417 8.03092 0.648469 7.92415 0.661633C7.81739 0.674797 7.71592 0.715616 7.62978 0.780051C7.54364 0.844485 7.47582 0.9303 7.43304 1.029C7.39026 1.1277 7.374 1.23586 7.38587 1.34277L7.38587 4.02815C7.38587 4.11717 7.35051 4.20255 7.28755 4.2655C7.2246 4.32845 7.13922 4.36382 7.0502 4.36382C6.96117 4.36382 6.87579 4.32845 6.81284 4.2655C6.74989 4.20255 6.71453 4.11717 6.71453 4.02815L6.71453 1.34277C6.70717 1.13208 6.74952 0.922623 6.83816 0.731345C6.9268 0.540068 7.05924 0.372351 7.22475 0.241772C7.44492 0.0814714 7.71104 -0.0033102 7.98337 8.7738e-05Z" fill="#2B3C4E"/>
<path d="M1.67958 4.36379C1.74584 4.36512 1.81061 4.38363 1.86756 4.4175C1.9416 4.46796 1.99291 4.54543 2.01048 4.63329C2.02805 4.72114 2.01049 4.81239 1.96155 4.88744L0.739703 6.7135L1.96155 8.53955C2.0114 8.61433 2.02951 8.70585 2.01188 8.79399C1.99425 8.88212 1.94234 8.95964 1.86756 9.00949C1.79278 9.05934 1.70125 9.07745 1.61312 9.05982C1.52499 9.0422 1.44747 8.99028 1.39762 8.9155L0.0549321 6.90147C0.0190618 6.84534 1.90735e-06 6.78011 1.90735e-06 6.7135C1.90735e-06 6.64688 0.0190618 6.58165 0.0549321 6.52552L1.39762 4.51149C1.42955 4.46628 1.47176 4.42932 1.52079 4.40364C1.56981 4.37796 1.62424 4.3643 1.67958 4.36379Z" fill="#2B3C4E"/>
<path d="M0.336686 6.37785L12.4209 6.37785C12.5099 6.37785 12.5953 6.41322 12.6582 6.47617C12.7212 6.53912 12.7565 6.6245 12.7565 6.71352C12.7565 6.80255 12.7212 6.88793 12.6582 6.95088C12.5953 7.01383 12.5099 7.04919 12.4209 7.04919L0.336686 7.04919C0.24766 7.04919 0.16228 7.01383 0.0993299 6.95088C0.0363789 6.88793 0.00101376 6.80255 0.00101376 6.71352C0.00101376 6.6245 0.0363789 6.53912 0.0993299 6.47617C0.16228 6.41322 0.24766 6.37785 0.336686 6.37785Z" fill="#2B3C4E"/>
</svg>
